<svg width="31" height="31" viewBox="0 0 31 31" fill="none" xmlns="http://www.w3.org/2000/svg">
<path d="M29.8764 15.348C29.8764 23.2251 23.4907 29.6108 15.6136 29.6108C7.73642 29.6108 1.35073 23.2251 1.35073 15.348C1.35073 7.4708 7.73642 1.0851 15.6136 1.0851C23.4907 1.0851 29.8764 7.4708 29.8764 15.348Z" fill="white" stroke="#121B35" stroke-width="1.0452"/>
<g clip-path="url(#clip0_60_16884)">
<path d="M17.9297 6.79883H13.1797V8.38216H17.9297V6.79883V6.79883ZM14.763 17.0905H16.3464V12.3405H14.763V17.0905ZM21.1201 11.8497L22.2443 10.7255C21.9039 10.3217 21.5318 9.94174 21.128 9.60924L20.0039 10.7334C18.7768 9.75174 17.233 9.16591 15.5547 9.16591C11.6201 9.16591 8.42969 12.3563 8.42969 16.2909C8.42969 20.2255 11.6122 23.4159 15.5547 23.4159C19.4972 23.4159 22.6797 20.2255 22.6797 16.2909C22.6797 14.6205 22.0939 13.0767 21.1201 11.8497ZM15.5547 21.8405C12.4909 21.8405 10.013 19.3626 10.013 16.2988C10.013 13.2351 12.4909 10.7572 15.5547 10.7572C18.6184 10.7572 21.0964 13.2351 21.0964 16.2988C21.0964 19.3626 18.6184 21.8405 15.5547 21.8405Z" fill="#121B35"/>
</g>
<defs>
<clipPath id="clip0_60_16884">
<rect width="19" height="19" fill="white" transform="translate(6 6)"/>
</clipPath>
</defs>
</svg>
