<svg width="31" height="31" viewBox="0 0 31 31" fill="none" xmlns="http://www.w3.org/2000/svg">
<path d="M29.9897 15.348C29.9897 23.2251 23.604 29.6108 15.7269 29.6108C7.8497 29.6108 1.46401 23.2251 1.46401 15.348C1.46401 7.4708 7.8497 1.0851 15.7269 1.0851C23.604 1.0851 29.9897 7.4708 29.9897 15.348Z" fill="white" stroke="#121B35" stroke-width="1.0452"/>
<g clip-path="url(#clip0_63_5573)">
<path d="M18.043 6.79883H13.293V8.38216H18.043V6.79883V6.79883ZM14.8763 17.0905H16.4596V12.3405H14.8763V17.0905ZM21.2334 11.8497L22.3576 10.7255C22.0171 10.3217 21.6451 9.94174 21.2413 9.60924L20.1171 10.7334C18.8901 9.75174 17.3463 9.16591 15.668 9.16591C11.7334 9.16591 8.54297 12.3563 8.54297 16.2909C8.54297 20.2255 11.7255 23.4159 15.668 23.4159C19.6105 23.4159 22.793 20.2255 22.793 16.2909C22.793 14.6205 22.2071 13.0767 21.2334 11.8497ZM15.668 21.8405C12.6042 21.8405 10.1263 19.3626 10.1263 16.2988C10.1263 13.2351 12.6042 10.7572 15.668 10.7572C18.7317 10.7572 21.2096 13.2351 21.2096 16.2988C21.2096 19.3626 18.7317 21.8405 15.668 21.8405Z" fill="#121B35"/>
</g>
<defs>
<clipPath id="clip0_63_5573">
<rect width="19" height="19" fill="white" transform="translate(6.11328 6)"/>
</clipPath>
</defs>
</svg>
