<svg width="30" height="31" viewBox="0 0 30 31" fill="none" xmlns="http://www.w3.org/2000/svg">
<path d="M29.1049 15.348C29.1049 23.2251 22.7192 29.6108 14.8421 29.6108C6.96494 29.6108 0.579241 23.2251 0.579241 15.348C0.579241 7.4708 6.96494 1.0851 14.8421 1.0851C22.7192 1.0851 29.1049 7.4708 29.1049 15.348Z" fill="white" stroke="#121B35" stroke-width="1.0452"/>
<g clip-path="url(#clip0_63_5578)">
<path d="M17.1602 6.79883H12.4102V8.38216H17.1602V6.79883V6.79883ZM13.9935 17.0905H15.5768V12.3405H13.9935V17.0905ZM20.3506 11.8497L21.4747 10.7255C21.1343 10.3217 20.7622 9.94174 20.3585 9.60924L19.2343 10.7334C18.0072 9.75174 16.4635 9.16591 14.7852 9.16591C10.8506 9.16591 7.66016 12.3563 7.66016 16.2909C7.66016 20.2255 10.8427 23.4159 14.7852 23.4159C18.7277 23.4159 21.9102 20.2255 21.9102 16.2909C21.9102 14.6205 21.3243 13.0767 20.3506 11.8497ZM14.7852 21.8405C11.7214 21.8405 9.24349 19.3626 9.24349 16.2988C9.24349 13.2351 11.7214 10.7572 14.7852 10.7572C17.8489 10.7572 20.3268 13.2351 20.3268 16.2988C20.3268 19.3626 17.8489 21.8405 14.7852 21.8405Z" fill="#121B35"/>
</g>
<defs>
<clipPath id="clip0_63_5578">
<rect width="19" height="19" fill="white" transform="translate(5.22852 6)"/>
</clipPath>
</defs>
</svg>
