<svg width="48" height="48" viewBox="0 0 48 48" fill="none" xmlns="http://www.w3.org/2000/svg">
<rect x="0.615385" y="0.615385" width="46.7692" height="46.7692" rx="23.3846" fill="white"/>
<path d="M23.2772 36.1312V32.5309C18.2668 32.2709 14.2764 28.1105 14.2764 23.04C14.2764 17.7995 18.5368 13.5391 23.7773 13.5391C29.0178 13.5391 33.2782 17.7995 33.2782 23.04C33.2782 27.9905 29.8379 32.9709 24.7074 35.4412L23.2772 36.1312ZM23.7773 15.5393C19.6369 15.5393 16.2766 18.8996 16.2766 23.04C16.2766 27.1804 19.6369 30.5407 23.7773 30.5407H25.2774V32.8409C28.9178 30.5407 31.278 26.7603 31.278 23.04C31.278 18.8996 27.9177 15.5393 23.7773 15.5393ZM22.7772 27.0404H24.7774V29.0406H22.7772V27.0404ZM24.7774 25.5402H22.7772C22.7772 22.2899 25.7775 22.5399 25.7775 20.5397C25.7775 19.4396 24.8774 18.5395 23.7773 18.5395C22.6772 18.5395 21.7771 19.4396 21.7771 20.5397H19.7769C19.7769 18.3295 21.5671 16.5394 23.7773 16.5394C25.9875 16.5394 27.7777 18.3295 27.7777 20.5397C27.7777 23.04 24.7774 23.29 24.7774 25.5402Z" fill="#323232"/>
<rect x="0.615385" y="0.615385" width="46.7692" height="46.7692" rx="23.3846" stroke="#EAECEE" stroke-width="1.23077"/>
</svg>
