<svg width="24" height="24" viewBox="0 0 24 24" fill="none" xmlns="http://www.w3.org/2000/svg">
<g clip-path="url(#clip0_75_6930)">
<path d="M19 3H5C3.9 3 3 3.9 3 5V19C3 20.1 3.9 21 5 21H19C20.1 21 21 20.1 21 19V5C21 3.9 20.1 3 19 3ZM19 19H5V5H19V19ZM17.99 9L16.58 7.58L9.99 14.17L7.41 11.6L5.99 13.01L9.99 17L17.99 9Z" fill="#323232"/>
<path d="M6 15V9.33363C6 8.29622 6.79323 7.43102 7.82674 7.34115L16.0211 6.6286C16.8993 6.55223 17.7239 7.05984 18.0513 7.8783L18.1664 8.16611C18.3786 8.69652 18.3538 9.29235 18.0983 9.80331L15.0528 15.8944C14.714 16.572 14.0215 17 13.2639 17H8C6.89543 17 6 16.1046 6 15Z" fill="white"/>
</g>
<defs>
<clipPath id="clip0_75_6930">
<rect width="24" height="24" fill="white"/>
</clipPath>
</defs>
</svg>
