<svg width="94" height="94" viewBox="0 0 94 94" fill="none" xmlns="http://www.w3.org/2000/svg">
<g clip-path="url(#clip0_76_7196)">
<path d="M75.7875 39.3227C73.1242 25.8102 61.2567 15.666 47 15.666C35.6808 15.666 25.85 22.0893 20.9542 31.4893C9.165 32.7427 0 42.7302 0 54.8327C0 67.7969 10.5358 78.3327 23.5 78.3327H74.4167C85.2267 78.3327 94 69.5593 94 58.7494C94 48.4093 85.9708 40.0277 75.7875 39.3227ZM74.4167 70.4994H23.5C14.8442 70.4994 7.83333 63.4885 7.83333 54.8327C7.83333 46.8035 13.8258 40.106 21.7767 39.2835L25.9675 38.8527L27.9258 35.1318C31.6467 27.9643 38.9317 23.4993 47 23.4993C57.2617 23.4993 66.1133 30.7843 68.1108 40.8502L69.2858 46.7252L75.2783 47.156C81.3883 47.5477 86.1667 52.6785 86.1667 58.7494C86.1667 65.2118 80.8792 70.4994 74.4167 70.4994ZM52.6792 39.166H41.3208V50.916H31.3333L47 66.5827L62.6667 50.916H52.6792V39.166Z" fill="#D9D9D9"/>
</g>
<defs>
<clipPath id="clip0_76_7196">
<rect width="94" height="94" fill="white"/>
</clipPath>
</defs>
</svg>
