<svg width="17" height="17" viewBox="0 0 17 17" fill="none" xmlns="http://www.w3.org/2000/svg">
<g clip-path="url(#clip0_75_7166)">
<path d="M13.7063 7.11232C13.2246 4.66857 11.0783 2.83398 8.5 2.83398C6.45292 2.83398 4.675 3.99565 3.78958 5.69565C1.6575 5.92232 0 7.72857 0 9.91732C0 12.2619 1.90542 14.1673 4.25 14.1673H13.4583C15.4133 14.1673 17 12.5807 17 10.6257C17 8.75565 15.5479 7.23982 13.7063 7.11232ZM13.4583 12.7507H4.25C2.68458 12.7507 1.41667 11.4827 1.41667 9.91732C1.41667 8.46523 2.50042 7.25398 3.93833 7.10523L4.69625 7.02732L5.05042 6.3544C5.72333 5.05815 7.04083 4.25065 8.5 4.25065C10.3558 4.25065 11.9567 5.56815 12.3179 7.38857L12.5304 8.45107L13.6142 8.52898C14.7192 8.59982 15.5833 9.52773 15.5833 10.6257C15.5833 11.7944 14.6271 12.7507 13.4583 12.7507ZM5.66667 9.20898H7.47292V11.334H9.52708V9.20898H11.3333L8.5 6.37565L5.66667 9.20898Z" fill="white"/>
</g>
<defs>
<clipPath id="clip0_75_7166">
<rect width="17" height="17" fill="white"/>
</clipPath>
</defs>
</svg>
