<svg width="26" height="26" viewBox="0 0 26 26" fill="none" xmlns="http://www.w3.org/2000/svg">
<g clip-path="url(#clip0_75_7159)">
<path d="M14.0837 7.58268H11.917V11.916H7.58366V14.0827H11.917V18.416H14.0837V14.0827H18.417V11.916H14.0837V7.58268ZM13.0003 2.16602C7.03116 2.16602 2.16699 7.03018 2.16699 12.9993C2.16699 18.9685 7.03116 23.8327 13.0003 23.8327C18.9695 23.8327 23.8337 18.9685 23.8337 12.9993C23.8337 7.03018 18.9695 2.16602 13.0003 2.16602ZM13.0003 21.666C8.22283 21.666 4.33366 17.7768 4.33366 12.9993C4.33366 8.22185 8.22283 4.33268 13.0003 4.33268C17.7778 4.33268 21.667 8.22185 21.667 12.9993C21.667 17.7768 17.7778 21.666 13.0003 21.666Z" fill="#AAAAAA"/>
</g>
<defs>
<clipPath id="clip0_75_7159">
<rect width="26" height="26" fill="white"/>
</clipPath>
</defs>
</svg>
