<svg width="291" height="54" viewBox="0 0 291 54" fill="none" xmlns="http://www.w3.org/2000/svg">
<path d="M23.1133 16.1719L26.2033 22.4319L33.1133 23.4419L28.1133 28.3119L29.2933 35.1919L23.1133 31.9419L16.9333 35.1919L18.1133 28.3119L13.1133 23.4419L20.0233 22.4319L23.1133 16.1719Z" fill="#FFA41D"/>
<path d="M59.1133 16.1719L62.2033 22.4319L69.1133 23.4419L64.1133 28.3119L65.2933 35.1919L59.1133 31.9419L52.9333 35.1919L54.1133 28.3119L49.1133 23.4419L56.0233 22.4319L59.1133 16.1719Z" fill="#FFA41D"/>
<path d="M95.1133 16.1719L98.2033 22.4319L105.113 23.4419L100.113 28.3119L101.293 35.1919L95.1133 31.9419L88.9333 35.1919L90.1133 28.3119L85.1133 23.4419L92.0233 22.4319L95.1133 16.1719Z" fill="#FFA41D"/>
<path d="M167.113 16.1719L170.203 22.4319L177.113 23.4419L172.113 28.3119L173.293 35.1919L167.113 31.9419L160.933 35.1919L162.113 28.3119L157.113 23.4419L164.023 22.4319L167.113 16.1719Z" fill="#FFA41D"/>
<path d="M131.113 16.1719L134.203 22.4319L141.113 23.4419L136.113 28.3119L137.293 35.1919L131.113 31.9419L124.933 35.1919L126.113 28.3119L121.113 23.4419L128.023 22.4319L131.113 16.1719Z" fill="#FFA41D"/>
<path d="M167.113 32.1719V16.1719L170.613 22.1719L174.113 22.6719L177.613 23.1719L172.113 28.6719L173.613 35.6719L167.113 32.1719Z" fill="white"/>
<path d="M167.113 16.1719L170.203 22.4319L177.113 23.4419L172.113 28.3119L173.293 35.1919L167.113 31.9419L160.933 35.1919L162.113 28.3119L157.113 23.4419L164.023 22.4319L167.113 16.1719Z" stroke="black" stroke-opacity="0.17" stroke-linecap="round" stroke-linejoin="round"/>
</svg>
