<svg width="291" height="54" viewBox="0 0 291 54" fill="none" xmlns="http://www.w3.org/2000/svg">
<path d="M23 16.1719L26.09 22.4319L33 23.4419L28 28.3119L29.18 35.1919L23 31.9419L16.82 35.1919L18 28.3119L13 23.4419L19.91 22.4319L23 16.1719Z" fill="#FFA41D"/>
<path d="M59 16.1719L62.09 22.4319L69 23.4419L64 28.3119L65.18 35.1919L59 31.9419L52.82 35.1919L54 28.3119L49 23.4419L55.91 22.4319L59 16.1719Z" fill="#FFA41D"/>
<path d="M95 16.1719L98.09 22.4319L105 23.4419L100 28.3119L101.18 35.1919L95 31.9419L88.82 35.1919L90 28.3119L85 23.4419L91.91 22.4319L95 16.1719Z" fill="#FFA41D"/>
<path d="M167 16.1719L170.09 22.4319L177 23.4419L172 28.3119L173.18 35.1919L167 31.9419L160.82 35.1919L162 28.3119L157 23.4419L163.91 22.4319L167 16.1719Z" fill="#FFA41D"/>
<path d="M131 16.1719L134.09 22.4319L141 23.4419L136 28.3119L137.18 35.1919L131 31.9419L124.82 35.1919L126 28.3119L121 23.4419L127.91 22.4319L131 16.1719Z" fill="#FFA41D"/>
<path d="M167 32.1719V16.1719L170.5 22.1719L174 22.6719L177.5 23.1719L172 28.6719L173.5 35.6719L167 32.1719Z" fill="white"/>
<path d="M167 16.1719L170.09 22.4319L177 23.4419L172 28.3119L173.18 35.1919L167 31.9419L160.82 35.1919L162 28.3119L157 23.4419L163.91 22.4319L167 16.1719Z" stroke="black" stroke-opacity="0.17" stroke-linecap="round" stroke-linejoin="round"/>
</svg>
