<svg width="291" height="54" viewBox="0 0 291 54" fill="none" xmlns="http://www.w3.org/2000/svg">
<path d="M22.2285 16.1719L25.3185 22.4319L32.2285 23.4419L27.2285 28.3119L28.4085 35.1919L22.2285 31.9419L16.0485 35.1919L17.2285 28.3119L12.2285 23.4419L19.1385 22.4319L22.2285 16.1719Z" fill="#FFA41D"/>
<path d="M58.2285 16.1719L61.3185 22.4319L68.2285 23.4419L63.2285 28.3119L64.4085 35.1919L58.2285 31.9419L52.0485 35.1919L53.2285 28.3119L48.2285 23.4419L55.1385 22.4319L58.2285 16.1719Z" fill="#FFA41D"/>
<path d="M94.2285 16.1719L97.3185 22.4319L104.229 23.4419L99.2285 28.3119L100.409 35.1919L94.2285 31.9419L88.0485 35.1919L89.2285 28.3119L84.2285 23.4419L91.1385 22.4319L94.2285 16.1719Z" fill="#FFA41D"/>
<path d="M166.229 16.1719L169.319 22.4319L176.229 23.4419L171.229 28.3119L172.409 35.1919L166.229 31.9419L160.049 35.1919L161.229 28.3119L156.229 23.4419L163.139 22.4319L166.229 16.1719Z" fill="#FFA41D"/>
<path d="M130.229 16.1719L133.319 22.4319L140.229 23.4419L135.229 28.3119L136.409 35.1919L130.229 31.9419L124.049 35.1919L125.229 28.3119L120.229 23.4419L127.139 22.4319L130.229 16.1719Z" fill="#FFA41D"/>
<path d="M166.229 32.1719V16.1719L169.729 22.1719L173.229 22.6719L176.729 23.1719L171.229 28.6719L172.729 35.6719L166.229 32.1719Z" fill="white"/>
<path d="M166.229 16.1719L169.319 22.4319L176.229 23.4419L171.229 28.3119L172.409 35.1919L166.229 31.9419L160.049 35.1919L161.229 28.3119L156.229 23.4419L163.139 22.4319L166.229 16.1719Z" stroke="black" stroke-opacity="0.17" stroke-linecap="round" stroke-linejoin="round"/>
</svg>
