<svg width="106" height="89" viewBox="0 0 106 89" fill="none" xmlns="http://www.w3.org/2000/svg">
<path d="M63.5133 61.376L47.2018 31.4731C46.9838 31.0734 46.4341 31.0135 46.1351 31.3569L14.2556 67.9705C13.8587 68.4264 14.2401 69.1304 14.8387 69.0471L63.0297 62.3363C63.4823 62.2733 63.7321 61.7771 63.5133 61.376Z" fill="#F4BA64"/>
<ellipse cx="55.2147" cy="46.5062" rx="17.6468" ry="3.59471" transform="rotate(61.3882 55.2147 46.5062)" fill="#F3A93A"/>
<path d="M70.7607 19.6457C71.4372 19.1802 70.4224 21.205 70.3331 21.3248C69.8752 21.9389 69.2516 22.4195 68.6829 22.9254C68.2501 23.3105 67.6631 23.504 68.3732 23.5454C68.8254 23.5718 71.8226 24.0288 71.5029 24.8291C70.9421 26.2329 69.4744 27.9456 68.323 28.97" stroke="#09D059" stroke-opacity="0.8" stroke-width="1.42624" stroke-linecap="round"/>
<path d="M81.1572 23.9582C81.8337 23.4927 80.8189 25.5175 80.7296 25.6373C80.2717 26.2514 79.6481 26.732 79.0794 27.2379C78.6466 27.623 78.0596 27.8165 78.7697 27.8579C79.2218 27.8843 82.2191 28.3413 81.8994 29.1416C81.3386 30.5454 79.8709 32.2581 78.7195 33.2825" stroke="#FFA41D" stroke-opacity="0.8" stroke-width="1.42624" stroke-linecap="round"/>
<path d="M90.6006 24.7395C91.277 24.274 90.2623 26.2987 90.173 26.4185C89.7151 27.0326 89.0914 27.5132 88.5228 28.0191C88.0899 28.4042 87.503 28.5977 88.2131 28.6392C88.6652 28.6656 91.6625 29.1226 91.3428 29.9228C90.7819 31.3267 89.3143 33.0394 88.1628 34.0638" stroke="#3722D3" stroke-opacity="0.8" stroke-width="1.42624" stroke-linecap="round"/>
<path d="M91.8373 42.0729C89.9699 43.7343 88.0758 45.3718 86.2324 47.0594C85.2966 47.9161 84.7249 49.2732 84.7882 50.3574C84.818 50.8668 85.1228 51.8504 85.8671 51.4371C86.3147 51.1885 86.9623 51.3285 87.2528 50.8665C88.0154 49.6536 87.9006 46.8361 87.2 45.9999C85.8669 44.4088 83.7882 44.974 81.8225 46.3208C80.4972 47.2289 78.7005 48.7007 77.987 50.104" stroke="#01AEEF" stroke-opacity="0.8" stroke-width="1.42624" stroke-linecap="round"/>
<path d="M67.89 34.4564C67.2294 35.0442 66.6655 35.3469 67.4904 36.1371C68.6922 37.2883 70.2687 35.7768 71.531 35.5105C71.7635 35.4614 70.9097 36.354 70.9065 36.3576C70.1322 37.2045 69.2304 38.1859 68.706 39.2163C68.1055 40.3964 70.2867 40.0098 70.8522 39.9307" stroke="#CA0BCE" stroke-opacity="0.8" stroke-width="1.42624" stroke-linecap="round"/>
<path d="M70.8734 47.1028C71.68 48.0095 72.8456 48.7447 72.569 50.4057" stroke="#09D059" stroke-opacity="0.8" stroke-width="1.42624" stroke-linecap="round"/>
<path d="M81.6129 36.8575C82.6203 36.1808 83.5063 35.1253 85.1147 35.6239" stroke="#323232" stroke-opacity="0.8" stroke-width="1.42624" stroke-linecap="round"/>
<path d="M77.3391 55.8865C75.4689 55.7045 73.6869 55.9961 71.8341 56.234C70.6811 56.382 69.2206 56.3617 68.3525 57.2599C67.6941 57.9411 67.3042 58.8904 67.4254 59.8343C67.4918 60.3515 67.8431 60.1599 68.2687 60.1053C69.8652 59.9003 69.5323 56.4065 69.0857 55.429C68.498 54.1428 66.3248 53.348 64.9976 53.5184" stroke="#CA0BCE" stroke-opacity="0.8" stroke-width="1.42624" stroke-linecap="round"/>
<path d="M64.2412 33.1363C63.2149 32.6834 61.015 34.8286 60.3224 35.4448C59.0728 36.5565 56.5551 38.0834 56.3378 39.8275C56.2557 40.4858 55.9465 41.6409 56.7763 41.898C57.5708 42.1441 59.0284 40.4276 59.1516 39.7847C59.5504 37.7048 58.9648 34.1193 55.9591 35.3739C53.0164 36.6022 51.6357 39.7435 49.9174 42.1102" stroke="#3722D3" stroke-opacity="0.8" stroke-width="1.42624" stroke-linecap="round"/>
<path d="M59.1672 50.2669C59.8264 49.7857 60.5452 49.5156 61.1818 48.9493C62.0993 48.133 62.8655 47.1189 63.6324 46.1624C65.3992 43.959 67.4279 42.8466 70.0918 43.8709C70.9073 44.1844 72.561 45.2781 73.3471 44.2847C73.9699 43.4977 72.9023 41.2506 72.6799 40.3814" stroke="#3722D3" stroke-opacity="0.8" stroke-width="1.42624" stroke-linecap="round"/>
<path d="M81.7992 41.8076C82.7418 41.5591 83.6419 41.5349 84.6031 41.1965C85.9887 40.7087 87.3125 39.9794 88.6082 39.3061C91.5931 37.7551 94.3091 37.3474 96.6285 39.2194C97.3386 39.7925 98.5486 41.398 99.8833 40.6953C100.941 40.1386 100.933 37.6092 101.132 36.6938" stroke="#09D059" stroke-opacity="0.8" stroke-width="1.42624" stroke-linecap="round"/>
<path d="M54.2263 28.8329C54.7417 28.0055 55.38 27.3704 55.8472 26.4647C56.5206 25.1593 56.9834 23.7205 57.4642 22.3417C58.5719 19.1654 60.2682 17.0056 63.2399 16.7763C64.1498 16.7061 66.1316 17.0441 66.6206 15.6172C67.0079 14.4868 65.2669 12.6519 64.7842 11.8489" stroke="#CA0BCE" stroke-opacity="0.8" stroke-width="1.42624" stroke-linecap="round"/>
</svg>
