<svg width="212" height="76" viewBox="0 0 212 76" fill="none" xmlns="http://www.w3.org/2000/svg">
<path d="M3 63L27.5775 45.3546C29.0741 44.2801 31.1822 44.9036 31.8536 46.6193L35.4238 55.7431C36.1349 57.5604 38.4311 58.1256 39.9045 56.8461L59.6913 39.6628C61.4003 38.1787 64.0733 39.2079 64.3457 41.4549L65.8856 54.159C66.1587 56.4126 68.8447 57.4388 70.551 55.9415L95.0052 34.4816C97.0181 32.7152 100.13 34.4816 99.6444 37.1154L97.2734 49.9866C96.8389 52.3452 99.357 54.1373 101.443 52.9541L139.254 31.5091C141.136 30.4415 143.471 31.8012 143.471 33.9651V46.6857C143.471 49.0268 146.156 50.351 148.013 48.9256L169.627 32.3379C171.419 30.9633 174.019 32.1429 174.164 34.3961L174.91 45.9563C175.052 48.1609 177.557 49.3555 179.36 48.0786L203.956 30.6565C205.949 29.2448 208.673 30.8579 208.393 33.2842L207 45.3529" stroke="#01AEEF" stroke-opacity="0.17" stroke-width="7.05882"/>
<path d="M87.1333 52.9667H113.617V60.5333H87.1333V52.9667ZM87.1333 37.8333H124.967V45.4H87.1333V37.8333ZM87.1333 22.7H124.967V30.2667H87.1333V22.7ZM132.533 7.56667H116.719C115.13 3.178 110.968 0 106.05 0C101.132 0 96.97 3.178 95.381 7.56667H79.5667C79.037 7.56667 78.5452 7.6045 78.0533 7.718C76.5778 8.02067 75.2537 8.77733 74.2322 9.79883C73.5512 10.4798 72.9837 11.3122 72.6053 12.2202C72.227 13.0903 72 14.074 72 15.1333V68.1C72 69.1215 72.227 70.143 72.6053 71.051C72.9837 71.959 73.5512 72.7535 74.2322 73.4723C75.2537 74.4938 76.5778 75.2505 78.0533 75.5532C78.5452 75.6288 79.037 75.6667 79.5667 75.6667H132.533C136.695 75.6667 140.1 72.2617 140.1 68.1V15.1333C140.1 10.9717 136.695 7.56667 132.533 7.56667ZM106.05 6.62083C107.601 6.62083 108.887 7.90717 108.887 9.45833C108.887 11.0095 107.601 12.2958 106.05 12.2958C104.499 12.2958 103.212 11.0095 103.212 9.45833C103.212 7.90717 104.499 6.62083 106.05 6.62083ZM132.533 68.1H79.5667V15.1333H132.533V68.1Z" fill="#121B35"/>
<path d="M117 55.2047V64.9954H126.791L155.667 36.1193L145.876 26.3286L117 55.2047ZM124.624 59.7737H122.222V57.3717L145.876 33.7174L148.278 36.1193L124.624 59.7737ZM163.238 24.8666L157.129 18.7571C156.607 18.235 155.954 18 155.275 18C154.596 18 153.944 18.2611 153.448 18.7571L148.67 23.535L158.46 33.3257L163.238 28.5479C164.257 27.5296 164.257 25.8848 163.238 24.8666V24.8666Z" fill="#121B35"/>
<path d="M120.757 56.8382C120.82 58.0954 121.628 60.0874 123.063 60.0874C124.184 60.0874 124.846 59.014 125.45 58.1419C125.944 57.4278 127.01 56.8794 127.656 56.2566C129.054 54.9092 130.596 53.6782 131.958 52.3154C133.142 51.1322 134.097 49.786 135.208 48.5448C136.585 47.0052 138.202 45.6886 139.53 44.1022C141.577 41.6567 143.853 39.4946 146.209 37.3532C146.77 36.8425 150.271 35.0169 149.007 34.455C147.959 33.9893 147.342 33.8407 146.249 34.2344C144.715 34.7866 142.857 36.9313 141.876 38.2056C141.033 39.3025 139.82 40.345 138.848 41.3545C138.11 42.1208 137.314 43.0552 136.672 43.9117C135.837 45.0247 134.847 45.9062 133.934 46.9202C133.288 47.6376 132.744 48.4118 131.948 48.986C130.651 49.9229 129.728 51.3355 128.429 52.2352C127.129 53.1345 126.034 54.4641 124.728 55.3039C123.896 55.8388 123.243 56.7683 122.381 57.1992" stroke="#121B35" stroke-width="3" stroke-linecap="round"/>
</svg>
