<svg width="9" height="10" viewBox="0 0 9 10" fill="none" xmlns="http://www.w3.org/2000/svg">
<path d="M2.84262 8C2.84262 7.44772 2.43014 7 1.92131 7C1.41249 7 1 7.44772 1 8C1 8.55228 1.41249 9 1.92131 9C2.43014 9 2.84262 8.55228 2.84262 8Z" stroke="#808CAD" stroke-opacity="0.78" stroke-linecap="round" stroke-linejoin="round"/>
<path d="M8.37049 8C8.37049 7.44772 7.95801 7 7.44918 7C6.94035 7 6.52787 7.44772 6.52787 8C6.52787 8.55228 6.94035 9 7.44918 9C7.95801 9 8.37049 8.55228 8.37049 8Z" stroke="#808CAD" stroke-opacity="0.78" stroke-linecap="round" stroke-linejoin="round"/>
<path d="M2.84262 2C2.84262 1.44772 2.43014 1 1.92131 1C1.41249 1 1 1.44772 1 2C1 2.55228 1.41249 3 1.92131 3C2.43014 3 2.84262 2.55228 2.84262 2Z" stroke="#808CAD" stroke-opacity="0.78" stroke-linecap="round" stroke-linejoin="round"/>
<path d="M8.37049 2C8.37049 1.44772 7.95801 1 7.44918 1C6.94035 1 6.52787 1.44772 6.52787 2C6.52787 2.55229 6.94035 3 7.44918 3C7.95801 3 8.37049 2.55228 8.37049 2Z" stroke="#808CAD" stroke-opacity="0.78" stroke-linecap="round" stroke-linejoin="round"/>
</svg>
