<svg width="552" height="24" viewBox="0 0 552 24" fill="none" xmlns="http://www.w3.org/2000/svg">
<g clip-path="url(#clip0_75_6890)">
<path d="M347 17H357V15H347V17ZM339 12L343 16V8L339 12ZM339 21H357V19H339V21ZM339 3V5H357V3H339ZM347 9H357V7H347V9ZM347 13H357V11H347V13Z" fill="#A3A3A3"/>
</g>
<g clip-path="url(#clip1_75_6890)">
<path d="M387 21H405V19H387V21ZM387 8V16L391 12L387 8ZM395 17H405V15H395V17ZM387 3V5H405V3H387ZM395 9H405V7H395V9ZM395 13H405V11H395V13Z" fill="#A3A3A3"/>
</g>
<g clip-path="url(#clip2_75_6890)">
<path d="M436 10.5C435.17 10.5 434.5 11.17 434.5 12C434.5 12.83 435.17 13.5 436 13.5C436.83 13.5 437.5 12.83 437.5 12C437.5 11.17 436.83 10.5 436 10.5ZM436 4.5C435.17 4.5 434.5 5.17 434.5 6C434.5 6.83 435.17 7.5 436 7.5C436.83 7.5 437.5 6.83 437.5 6C437.5 5.17 436.83 4.5 436 4.5ZM436 16.5C435.17 16.5 434.5 17.18 434.5 18C434.5 18.82 435.18 19.5 436 19.5C436.82 19.5 437.5 18.82 437.5 18C437.5 17.18 436.83 16.5 436 16.5ZM439 19H453V17H439V19ZM439 13H453V11H439V13ZM439 5V7H453V5H439Z" fill="#A3A3A3"/>
</g>
<g clip-path="url(#clip3_75_6890)">
<path d="M482 17H484V17.5H483V18.5H484V19H482V20H485V16H482V17ZM483 8H484V4H482V5H483V8ZM482 11H483.8L482 13.1V14H485V13H483.2L485 10.9V10H482V11ZM487 5V7H501V5H487ZM487 19H501V17H487V19ZM487 13H501V11H487V13Z" fill="#A3A3A3"/>
</g>
<g clip-path="url(#clip4_75_6890)">
<path d="M306.62 18H301.38L303.38 14H301V6H309V13.24L306.62 18ZM304.62 16H305.38L307 12.76V8H303V12H306.62L304.62 16ZM296.62 18H291.38L293.38 14H291V6H299V13.24L296.62 18ZM294.62 16H295.38L297 12.76V8H293V12H296.62L294.62 16Z" fill="#A3A3A3"/>
</g>
<g clip-path="url(#clip5_75_6890)">
<path d="M15.6 10.79C16.57 10.12 17.25 9.02 17.25 8C17.25 5.74 15.5 4 13.25 4H7V18H14.04C16.13 18 17.75 16.3 17.75 14.21C17.75 12.69 16.89 11.39 15.6 10.79ZM10 6.5H13C13.83 6.5 14.5 7.17 14.5 8C14.5 8.83 13.83 9.5 13 9.5H10V6.5ZM13.5 15.5H10V12.5H13.5C14.33 12.5 15 13.17 15 14C15 14.83 14.33 15.5 13.5 15.5Z" fill="#A3A3A3"/>
</g>
<g clip-path="url(#clip6_75_6890)">
<path d="M58 4V7H60.21L56.79 15H54V18H62V15H59.79L63.21 7H66V4H58Z" fill="#A3A3A3"/>
</g>
<g clip-path="url(#clip7_75_6890)">
<path d="M214 18H212V19H215V20H211V18C211 17.45 211.45 17 212 17H214V16H211V15H214C214.55 15 215 15.45 215 16V17C215 17.55 214.55 18 214 18ZM197.88 18H200.54L203.94 12.58H204.06L207.46 18H210.12L205.47 10.73L209.81 4H207.13L204.06 8.99H203.94L200.85 4H198.19L202.51 10.73L197.88 18Z" fill="#A3A3A3"/>
</g>
<g clip-path="url(#clip8_75_6890)">
<path d="M262 7H260V8H263V9H259V7C259 6.45 259.45 6 260 6H262V5H259V4H262C262.55 4 263 4.45 263 5V6C263 6.55 262.55 7 262 7ZM245.88 20H248.54L251.94 14.58H252.06L255.46 20H258.12L253.47 12.73L257.81 6H255.13L252.06 10.99H251.94L248.85 6H246.19L250.51 12.73L245.88 20Z" fill="#A3A3A3"/>
</g>
<g clip-path="url(#clip9_75_6890)">
<path d="M154 19H158V16H154V19ZM149 4V7H154V10H158V7H163V4H149ZM147 14H165V12H147V14Z" fill="#A3A3A3"/>
</g>
<g clip-path="url(#clip10_75_6890)">
<path d="M108 17C111.31 17 114 14.31 114 11V3H111.5V11C111.5 12.93 109.93 14.5 108 14.5C106.07 14.5 104.5 12.93 104.5 11V3H102V11C102 14.31 104.69 17 108 17ZM101 19V21H115V19H101Z" fill="#A3A3A3"/>
</g>
<path d="M546 20H532V6H541V4H532C530.9 4 530 4.9 530 6V20C530 21.1 530.9 22 532 22H546C547.1 22 548 21.1 548 20V11H546V20ZM538.21 16.83L536.25 14.47L533.5 18H544.5L540.96 13.29L538.21 16.83ZM548 4V1H546V4H543C543.01 4.01 543 6 543 6H546V8.99C546.01 9 548 8.99 548 8.99V6H551V4H548Z" fill="#A3A3A3"/>
<defs>
<clipPath id="clip0_75_6890">
<rect width="24" height="24" fill="white" transform="translate(336)"/>
</clipPath>
<clipPath id="clip1_75_6890">
<rect width="24" height="24" fill="white" transform="translate(384)"/>
</clipPath>
<clipPath id="clip2_75_6890">
<rect width="24" height="24" fill="white" transform="translate(432)"/>
</clipPath>
<clipPath id="clip3_75_6890">
<rect width="24" height="24" fill="white" transform="translate(480)"/>
</clipPath>
<clipPath id="clip4_75_6890">
<rect width="24" height="24" fill="white" transform="translate(288)"/>
</clipPath>
<clipPath id="clip5_75_6890">
<rect width="24" height="24" fill="white"/>
</clipPath>
<clipPath id="clip6_75_6890">
<rect width="24" height="24" fill="white" transform="translate(48)"/>
</clipPath>
<clipPath id="clip7_75_6890">
<rect width="24" height="24" fill="white" transform="translate(192)"/>
</clipPath>
<clipPath id="clip8_75_6890">
<rect width="24" height="24" fill="white" transform="translate(240)"/>
</clipPath>
<clipPath id="clip9_75_6890">
<rect width="24" height="24" fill="white" transform="translate(144)"/>
</clipPath>
<clipPath id="clip10_75_6890">
<rect width="24" height="24" fill="white" transform="translate(96)"/>
</clipPath>
</defs>
</svg>
