<svg width="28" height="27" viewBox="0 0 28 27" fill="none" xmlns="http://www.w3.org/2000/svg">
<circle cx="14" cy="13.5" r="13.5" fill="#FFCC80" fill-opacity="0.54"/>
<g clip-path="url(#clip0_63_5537)">
<path d="M14.833 6.5C10.6913 6.5 7.33301 9.85833 7.33301 14H4.83301L8.07467 17.2417L8.13301 17.3583L11.4997 14H8.99967C8.99967 10.775 11.608 8.16667 14.833 8.16667C18.058 8.16667 20.6663 10.775 20.6663 14C20.6663 17.225 18.058 19.8333 14.833 19.8333C13.2247 19.8333 11.7663 19.175 10.7163 18.1167L9.53301 19.3C10.8913 20.6583 12.758 21.5 14.833 21.5C18.9747 21.5 22.333 18.1417 22.333 14C22.333 9.85833 18.9747 6.5 14.833 6.5ZM13.9997 10.6667V14.8333L17.5413 16.9333L18.183 15.8667L15.2497 14.125V10.6667H13.9997Z" fill="#323232"/>
</g>
<defs>
<clipPath id="clip0_63_5537">
<rect width="20" height="20" fill="white" transform="translate(4 4)"/>
</clipPath>
</defs>
</svg>
