<svg width="16" height="16" viewBox="0 0 16 16" fill="none" xmlns="http://www.w3.org/2000/svg">
<path d="M7.99935 14.666C8.73268 14.666 9.33268 14.066 9.33268 13.3327H6.66602C6.66602 14.066 7.26602 14.666 7.99935 14.666ZM11.9993 10.666V7.33268C11.9993 5.28602 10.9127 3.57268 8.99935 3.11935V2.66602C8.99935 2.11268 8.55268 1.66602 7.99935 1.66602C7.44602 1.66602 6.99935 2.11268 6.99935 2.66602V3.11935C5.09268 3.57268 3.99935 5.27935 3.99935 7.33268V10.666L2.66602 11.9993V12.666H13.3327V11.9993L11.9993 10.666ZM10.666 11.3327H5.33268V7.33268C5.33268 5.67935 6.33935 4.33268 7.99935 4.33268C9.65935 4.33268 10.666 5.67935 10.666 7.33268V11.3327Z" fill="#0C1116"/>
</svg>
