<svg width="19" height="19" viewBox="0 0 19 19" fill="none" xmlns="http://www.w3.org/2000/svg">
<g clip-path="url(#clip0_68_5179)">
<path d="M9.49967 1.58398C5.12967 1.58398 1.58301 5.13065 1.58301 9.50065C1.58301 13.8707 5.12967 17.4173 9.49967 17.4173C13.8697 17.4173 17.4163 13.8707 17.4163 9.50065C17.4163 5.13065 13.8697 1.58398 9.49967 1.58398ZM9.49967 15.834C6.00051 15.834 3.16634 12.9998 3.16634 9.50065C3.16634 6.00148 6.00051 3.16732 9.49967 3.16732C12.9988 3.16732 15.833 6.00148 15.833 9.50065C15.833 12.9998 12.9988 15.834 9.49967 15.834Z" fill="#31313A"/>
<path d="M9.50033 13.4577C11.6865 13.4577 13.4587 11.6855 13.4587 9.49935C13.4587 7.31322 11.6865 5.54102 9.50033 5.54102C7.3142 5.54102 5.54199 7.31322 5.54199 9.49935C5.54199 11.6855 7.3142 13.4577 9.50033 13.4577Z" fill="#31313A"/>
</g>
<defs>
<clipPath id="clip0_68_5179">
<rect width="19" height="19" fill="white"/>
</clipPath>
</defs>
</svg>
