<svg width="16" height="16" viewBox="0 0 16 16" fill="none" xmlns="http://www.w3.org/2000/svg">
<path d="M10.367 3.69935L7.33366 0.666016V2.71268C4.70699 3.03935 2.66699 5.27935 2.66699 7.99935C2.66699 10.7193 4.70033 12.9593 7.33366 13.286V11.9393C5.44033 11.6193 4.00033 9.97935 4.00033 7.99935C4.00033 6.01935 5.44033 4.37935 7.33366 4.05935V6.66602L10.367 3.69935ZM13.287 7.33268C13.1737 6.40602 12.807 5.51268 12.207 4.73935L11.2603 5.68602C11.6203 6.18602 11.847 6.75268 11.9403 7.33268H13.287ZM8.66699 11.9327V13.2793C9.59366 13.166 10.4937 12.806 11.267 12.206L10.307 11.246C9.80699 11.606 9.24699 11.8393 8.66699 11.9327ZM11.2603 10.3193L12.207 11.2593C12.807 10.486 13.1737 9.59268 13.287 8.66602H11.9403C11.847 9.24602 11.6203 9.81268 11.2603 10.3193V10.3193Z" fill="#A8B0B9"/>
</svg>
