<svg width="19" height="19" viewBox="0 0 19 19" fill="none" xmlns="http://www.w3.org/2000/svg">
<g opacity="0.9">
<path d="M15.3823 10.2765C15.414 10.0232 15.4377 9.76982 15.4377 9.50065C15.4377 9.23148 15.414 8.97815 15.3823 8.72482L17.0527 7.41857C17.2032 7.29982 17.2427 7.08607 17.1477 6.9119L15.5644 4.17273C15.4932 4.04607 15.3586 3.97482 15.2161 3.97482C15.1686 3.97482 15.1211 3.98273 15.0815 3.99857L13.1102 4.79023C12.6986 4.47357 12.2552 4.21232 11.7723 4.0144L11.4715 1.91648C11.4477 1.72648 11.2815 1.58398 11.0836 1.58398H7.91691C7.71899 1.58398 7.55274 1.72648 7.52899 1.91648L7.22816 4.0144C6.74524 4.21232 6.30191 4.48148 5.89024 4.79023L3.91899 3.99857C3.87149 3.98273 3.82399 3.97482 3.77649 3.97482C3.64191 3.97482 3.50732 4.04607 3.43607 4.17273L1.85274 6.9119C1.74982 7.08607 1.79732 7.29982 1.94774 7.41857L3.61816 8.72482C3.58649 8.97815 3.56274 9.2394 3.56274 9.50065C3.56274 9.7619 3.58649 10.0232 3.61816 10.2765L1.94774 11.5827C1.79732 11.7015 1.75774 11.9152 1.85274 12.0894L3.43607 14.8286C3.50732 14.9552 3.64191 15.0265 3.78441 15.0265C3.83191 15.0265 3.87941 15.0186 3.91899 15.0027L5.89024 14.2111C6.30191 14.5277 6.74524 14.789 7.22816 14.9869L7.52899 17.0848C7.55274 17.2748 7.71899 17.4173 7.91691 17.4173H11.0836C11.2815 17.4173 11.4477 17.2748 11.4715 17.0848L11.7723 14.9869C12.2552 14.789 12.6986 14.5198 13.1102 14.2111L15.0815 15.0027C15.129 15.0186 15.1765 15.0265 15.224 15.0265C15.3586 15.0265 15.4932 14.9552 15.5644 14.8286L17.1477 12.0894C17.2427 11.9152 17.2032 11.7015 17.0527 11.5827L15.3823 10.2765V10.2765ZM13.8148 8.92273C13.8465 9.16815 13.8544 9.3344 13.8544 9.50065C13.8544 9.6669 13.8386 9.84107 13.8148 10.0786L13.704 10.9732L14.4086 11.5273L15.2636 12.1923L14.7094 13.1502L13.704 12.7465L12.8807 12.414L12.1682 12.9523C11.8277 13.2057 11.5032 13.3957 11.1786 13.5302L10.3394 13.8707L10.2127 14.7652L10.0544 15.834H8.94607L8.79566 14.7652L8.66899 13.8707L7.82982 13.5302C7.48941 13.3877 7.17274 13.2057 6.85607 12.9682L6.13566 12.414L5.29649 12.7544L4.29107 13.1582L3.73691 12.2002L4.59191 11.5352L5.29649 10.9811L5.18566 10.0865C5.16191 9.84107 5.14607 9.65898 5.14607 9.50065C5.14607 9.34232 5.16191 9.16023 5.18566 8.92273L5.29649 8.02815L4.59191 7.47398L3.73691 6.80898L4.29107 5.85107L5.29649 6.25482L6.11982 6.58732L6.83232 6.04898C7.17274 5.79565 7.49732 5.60565 7.82191 5.47107L8.66107 5.13065L8.78774 4.23607L8.94607 3.16732H10.0465L10.1969 4.23607L10.3236 5.13065L11.1627 5.47107C11.5032 5.61357 11.8198 5.79565 12.1365 6.03315L12.8569 6.58732L13.6961 6.2469L14.7015 5.84315L15.2557 6.80107L14.4086 7.47398L13.704 8.02815L13.8148 8.92273ZM9.50024 6.33398C7.75066 6.33398 6.33357 7.75107 6.33357 9.50065C6.33357 11.2502 7.75066 12.6673 9.50024 12.6673C11.2498 12.6673 12.6669 11.2502 12.6669 9.50065C12.6669 7.75107 11.2498 6.33398 9.50024 6.33398ZM9.50024 11.084C8.62941 11.084 7.91691 10.3715 7.91691 9.50065C7.91691 8.62982 8.62941 7.91732 9.50024 7.91732C10.3711 7.91732 11.0836 8.62982 11.0836 9.50065C11.0836 10.3715 10.3711 11.084 9.50024 11.084Z" fill="#121B35"/>
</g>
</svg>
