<svg width="19" height="19" viewBox="0 0 19 19" fill="none" xmlns="http://www.w3.org/2000/svg">
<g clip-path="url(#clip0_63_6250)">
<path d="M11.9307 0.798828H7.18066V2.38216H11.9307V0.798828V0.798828ZM8.764 11.0905H10.3473V6.34049H8.764V11.0905ZM15.1211 5.84966L16.2452 4.72549C15.9048 4.32174 15.5327 3.94174 15.129 3.60924L14.0048 4.73341C12.7777 3.75174 11.234 3.16591 9.55566 3.16591C5.62108 3.16591 2.43066 6.35633 2.43066 10.2909C2.43066 14.2255 5.61316 17.4159 9.55566 17.4159C13.4982 17.4159 16.6807 14.2255 16.6807 10.2909C16.6807 8.62049 16.0948 7.07674 15.1211 5.84966ZM9.55566 15.8405C6.49191 15.8405 4.014 13.3626 4.014 10.2988C4.014 7.23508 6.49191 4.75716 9.55566 4.75716C12.6194 4.75716 15.0973 7.23508 15.0973 10.2988C15.0973 13.3626 12.6194 15.8405 9.55566 15.8405Z" fill="#AAAAAA"/>
</g>
<defs>
<clipPath id="clip0_63_6250">
<rect width="19" height="19" fill="white"/>
</clipPath>
</defs>
</svg>
